<svg width="16" height="16" viewBox="0 0 16 16" fill="none" xmlns="http://www.w3.org/2000/svg">
<g clip-path="url(#clip0_2_22)">
<path d="M0.5 9H3V7H0.5V9Z" fill="#FC7F7F"/>
<path d="M4 11V5C4 4.44772 4.44772 4 5 4H11C11.5523 4 12 4.44772 12 5V11C12 11.5523 11.5523 12 11 12H5C4.44772 12 4 11.5523 4 11Z" fill="#FC7F7F"/>
<path d="M13 9V7H15.5V9H13Z" fill="#FC7F7F"/>
<path d="M9 15.5V13H7V15.5H9Z" fill="#FC7F7F"/>
<path d="M2.5 14.5L1.5 13.5L3 12L4 13L2.5 14.5Z" fill="#FC7F7F"/>
<path d="M13 12L12 13L13.5 14.5L14.5 13.5L13 12Z" fill="#FC7F7F"/>
<path d="M4 3L3 4L1.5 2.5L2.5 1.5L4 3Z" fill="#FC7F7F"/>
<path d="M9 3H7V0.5H9V3Z" fill="#FC7F7F"/>
<path d="M13 4L12 3L13.5 1.5L14.5 2.5L13 4Z" fill="#FC7F7F"/>
</g>
<defs>
<clipPath id="clip0_2_22">
<rect width="16" height="16" fill="white"/>
</clipPath>
</defs>
</svg>
